<svg xmlns="http://www.w3.org/2000/svg" viewBox="0 0 60 36">
  <rect width="60" height="36" fill="#DE2910"/>
  <polygon points="9 5 10.9 10.8 6 7 12 7 7.1 10.8" fill="#FFDE00"/>
  <polygon points="17 3 18 5 20 5 18.3 6.2 18.9 8.2 17 7 15.1 8.2 15.7 6.2 14 5 16 5" fill="#FFDE00"/>
  <polygon points="20.5 8 21.5 10 23.5 10 21.8 11.2 22.4 13.2 20.5 12 18.6 13.2 19.2 11.2 17.5 10 19.5 10" fill="#FFDE00"/>
  <polygon points="20.5 14 21.5 16 23.5 16 21.8 17.2 22.4 19.2 20.5 18 18.6 19.2 19.2 17.2 17.5 16 19.5 16" fill="#FFDE00"/>
  <polygon points="17 18 18 20 20 20 18.3 21.2 18.9 23.2 17 22 15.1 23.2 15.7 21.2 14 20 16 20" fill="#FFDE00"/>
</svg>
